<?xml version="1.0" encoding="UTF-8"?>
<svg width="13px" height="13px" viewBox="0 0 13 13" version="1.1" xmlns="http://www.w3.org/2000/svg" xmlns:xlink="http://www.w3.org/1999/xlink">
    <!-- Generator: Sketch 51 (57462) - http://www.bohemiancoding.com/sketch -->
    <title>Shape</title>
    <desc>Created with Sketch.</desc>
    <defs></defs>
    <g id="TEMOIGNAGE" stroke="none" stroke-width="1" fill="none" fill-rule="evenodd">
        <g id="02_temoingnage-lightbox" transform="translate(-1391.000000, -56.000000)" fill="#FFFFFF" fill-rule="nonzero">
            <g id="light-box" transform="translate(0.000000, -12.000000)">
                <g id="navigation" transform="translate(340.000000, 68.000000)">
                    <g id="cross" transform="translate(1051.000000, 0.000000)">
                        <path d="M0.182715871,1.08417639 C-0.0609052905,0.84062545 -0.0609052905,0.434457415 0.182715871,0.182663208 C0.435332276,-0.060887736 0.832622171,-0.060887736 1.08448897,0.182663208 L6.49662678,5.60223375 L11.9177598,0.182663208 C12.161381,-0.060887736 12.5676661,-0.060887736 12.8105377,0.182663208 C13.0631541,0.435206802 13.0631541,0.841374838 12.8105377,1.08417639 L7.39839988,6.49550367 L12.8105377,11.9150742 C13.0631541,12.1586252 13.0631541,12.5647932 12.8105377,12.8165874 C12.5669165,13.0601383 12.1606314,13.0601383 11.9177598,12.8165874 L6.49737639,7.39776625 L1.08523858,12.8173368 C0.832622171,13.0608877 0.435332276,13.0608877 0.183465475,12.8173368 C-0.0601556869,12.5647932 -0.0601556869,12.1586252 0.183465475,11.9158236 L5.59560329,6.49625306 L0.182715871,1.08417639 Z" id="Shape"></path>
                    </g>
                </g>
            </g>
        </g>
    </g>
</svg>